<svg width="50" height="50" viewBox="0 0 50 50" fill="none" xmlns="http://www.w3.org/2000/svg">
<path fill-rule="evenodd" clip-rule="evenodd" d="M50 25C50 38.8071 38.8071 50 25 50C11.1929 50 0 38.8071 0 25C0 11.1929 11.1929 0 25 0C38.8071 0 50 11.1929 50 25ZM17 22C16.7348 22 16.4804 22.1054 16.2929 22.2929C16.1054 22.4804 16 22.7348 16 23C16.003 25.2126 16.8201 27.3468 18.2954 28.9957C19.7708 30.6446 21.8013 31.693 24 31.941V35H21C20.7348 35 20.4804 35.1054 20.2929 35.2929C20.1054 35.4804 20 35.7348 20 36C20 36.2652 20.1054 36.5196 20.2929 36.7071C20.4804 36.8946 20.7348 37 21 37H29C29.2652 37 29.5196 36.8946 29.7071 36.7071C29.8946 36.5196 30 36.2652 30 36C30 35.7348 29.8946 35.4804 29.7071 35.2929C29.5196 35.1054 29.2652 35 29 35H26V31.941C28.1987 31.693 30.2292 30.6446 31.7046 28.9957C33.1799 27.3468 33.997 25.2126 34 23C34 22.7348 33.8946 22.4804 33.7071 22.2929C33.5196 22.1054 33.2652 22 33 22C32.7348 22 32.4804 22.1054 32.2929 22.2929C32.1054 22.4804 32 22.7348 32 23C32 24.8565 31.2625 26.637 29.9497 27.9497C28.637 29.2625 26.8565 30 25 30C23.1435 30 21.363 29.2625 20.0503 27.9497C18.7375 26.637 18 24.8565 18 23C18 22.7348 17.8946 22.4804 17.7071 22.2929C17.5196 22.1054 17.2652 22 17 22ZM28.5338 26.5338C27.5964 27.4711 26.3256 27.9984 25 28C23.6744 27.9984 22.4036 27.4711 21.4662 26.5338C20.5289 25.5964 20.0016 24.3256 20 23V18C20 16.6739 20.5268 15.4021 21.4645 14.4645C22.4021 13.5268 23.6739 13 25 13C26.3261 13 27.5979 13.5268 28.5355 14.4645C29.4732 15.4021 30 16.6739 30 18V23C29.9984 24.3256 29.4711 25.5964 28.5338 26.5338ZM22.8787 15.8787C22.3161 16.4413 22 17.2044 22 18V23C22 23.7956 22.3161 24.5587 22.8787 25.1213C23.4413 25.6839 24.2044 26 25 26C25.7956 26 26.5587 25.6839 27.1213 25.1213C27.6839 24.5587 28 23.7956 28 23V18C28 17.2044 27.6839 16.4413 27.1213 15.8787C26.5587 15.3161 25.7956 15 25 15C24.2044 15 23.4413 15.3161 22.8787 15.8787Z" fill="white"/>
</svg>
